# xmcd
#
# Track frame offsets:
#	150
#	128078
#	150350
#	164313
#
# Disc length: 2507 seconds
#
# Revision: 1
# Processed by: cddbd v1.5.2PL0 Copyright (c) Steve Scherf et al.
# Submitted via: audiograbber 1.83.01
#
DISCID=2309c904
DTITLE=Grateful Dead - 72-10-26 Music Hall, Cincinatti OH
DYEAR=1900
DGENRE=
TTITLE0=Playing In The Band
TTITLE1=Deal
TTITLE2=Me and My Uncle
TTITLE3=Brokedown Palace
EXTD=
EXTT0=
EXTT1=
EXTT2=
EXTT3=
PLAYORDER=
